<?xml version="1.0" encoding="UTF-8"?>
<svg id="Layer_2" data-name="Layer 2" xmlns="http://www.w3.org/2000/svg" viewBox="0 0 1046.2 960.11">
  <defs>
    <style>
      .cls-1 {
        fill: #4bce48;
        stroke-width: 0px;
      }
    </style>
  </defs>
  <g id="Layer_1-2" data-name="Layer 1">
    <path class="cls-1" d="M1019,0H113.53c-14.02,0-25.74,10.66-27.07,24.61L.13,930.33c-1.52,15.97,11.03,29.78,27.07,29.78h905.47c14.02,0,25.74-10.66,27.07-24.61L1046.08,29.78c1.52-15.97-11.03-29.78-27.07-29.78ZM549.56,84.55c0-11.22,9.44-20.13,20.65-19.51,187.29,10.33,337.33,160.38,347.67,347.67.62,11.21-8.28,20.65-19.51,20.65h-329.27c-10.79,0-19.53-8.75-19.53-19.53V84.55ZM510.45,882.94c0,12.97-10.9,23.25-23.85,22.53-224.22-12.37-402.23-198.11-402.23-425.42S262.38,67,486.6,54.63c12.95-.71,23.85,9.57,23.85,22.53v805.78ZM917.9,637.03v241.29c0,15.02-12.18,27.2-27.2,27.2h-214.84c-15.02,0-27.2-12.18-27.2-27.2v-241.29h-99.11v-165.49h368.34v165.49Z"/>
  </g>
</svg>