<svg width="150" height="180" viewBox="0 0 150 180" fill="none" xmlns="http://www.w3.org/2000/svg">
<path d="M-16.6665 50.0003V33.3337C-16.6665 28.9134 -14.9106 24.6742 -11.785 21.5485C-8.65934 18.4229 -4.42011 16.667 0.000164032 16.667H70.8335L116.667 62.5003V166.667C116.667 171.087 114.911 175.326 111.785 178.452C108.66 181.578 104.42 183.334 100 183.334H-16.6665" stroke="#1A1A1A" stroke-width="10" stroke-linecap="round" stroke-linejoin="round"/>
<path d="M66.6665 16.667V66.667H116.667" stroke="#1A1A1A" stroke-width="10" stroke-linecap="round" stroke-linejoin="round"/>
<path d="M0 141.667C13.8071 141.667 25 130.474 25 116.667C25 102.86 13.8071 91.667 0 91.667C-13.8071 91.667 -25 102.86 -25 116.667C-25 130.474 -13.8071 141.667 0 141.667Z" stroke="#1A1A1A" stroke-width="10" stroke-linecap="round" stroke-linejoin="round"/>
<path d="M0 83.333V91.6663" stroke="#1A1A1A" stroke-width="10" stroke-linecap="round" stroke-linejoin="round"/>
<path d="M0 141.667V150" stroke="#1A1A1A" stroke-width="10" stroke-linecap="round" stroke-linejoin="round"/>
<path d="M33.3333 116.667H25" stroke="#1A1A1A" stroke-width="10" stroke-linecap="round" stroke-linejoin="round"/>
<path d="M24.9998 91.667L17.6665 99.0003" stroke="#1A1A1A" stroke-width="10" stroke-linecap="round" stroke-linejoin="round"/>
<path d="M24.9998 141.666L17.6665 134.333" stroke="#1A1A1A" stroke-width="10" stroke-linecap="round" stroke-linejoin="round"/>
</svg>
