<svg width="150" height="179" viewBox="0 0 150 179" fill="none" xmlns="http://www.w3.org/2000/svg">
<path d="M62.5002 58.3333C64.8014 58.3333 66.6668 56.4679 66.6668 54.1667C66.6668 51.8655 64.8014 50 62.5002 50C60.199 50 58.3335 51.8655 58.3335 54.1667C58.3335 56.4679 60.199 58.3333 62.5002 58.3333Z" stroke="#1A1A1A" stroke-width="10" stroke-linecap="round" stroke-linejoin="round"/>
<path d="M95.8332 91.6663C98.1344 91.6663 99.9998 89.8009 99.9998 87.4997C99.9998 85.1985 98.1344 83.333 95.8332 83.333C93.532 83.333 91.6665 85.1985 91.6665 87.4997C91.6665 89.8009 93.532 91.6663 95.8332 91.6663Z" stroke="#1A1A1A" stroke-width="10" stroke-linecap="round" stroke-linejoin="round"/>
<path d="M20.8332 66.6663C23.1344 66.6663 24.9998 64.8009 24.9998 62.4997C24.9998 60.1985 23.1344 58.333 20.8332 58.333C18.532 58.333 16.6665 60.1985 16.6665 62.4997C16.6665 64.8009 18.532 66.6663 20.8332 66.6663Z" stroke="#1A1A1A" stroke-width="10" stroke-linecap="round" stroke-linejoin="round"/>
<path d="M4.16667 108.333C6.46785 108.333 8.33333 106.468 8.33333 104.167C8.33333 101.865 6.46785 100 4.16667 100C1.86548 100 0 101.865 0 104.167C0 106.468 1.86548 108.333 4.16667 108.333Z" stroke="#1A1A1A" stroke-width="10" stroke-linecap="round" stroke-linejoin="round"/>
<path d="M49.9998 16.667C4.1665 16.667 -33.3335 54.167 -33.3335 100C-33.3335 145.834 4.1665 183.334 49.9998 183.334C57.7165 183.334 63.7332 177.117 63.7332 169.267C63.7332 165.625 62.2332 162.309 60.0915 159.892C57.6748 157.484 56.4415 154.459 56.4415 150.517C56.4099 148.683 56.7479 146.861 57.4352 145.161C58.1226 143.46 59.1453 141.915 60.4423 140.618C61.7394 139.321 63.2844 138.298 64.9851 137.611C66.6858 136.923 68.5074 136.585 70.3415 136.617H86.9748C112.4 136.617 133.267 115.759 133.267 90.3337C133.042 50.1003 95.5082 16.667 49.9998 16.667Z" stroke="#1A1A1A" stroke-width="10" stroke-linecap="round" stroke-linejoin="round"/>
</svg>
