<svg width="64" height="65" viewBox="0 0 64 65" fill="none" xmlns="http://www.w3.org/2000/svg">
<path d="M34.112 12.149C39.36 14.325 46.528 17.589 51.776 19.893L46.464 25.653C41.28 31.221 35.968 36.725 30.464 41.973C31.872 42.805 33.216 43.509 34.112 44.085C43.264 49.589 52.416 55.285 60.864 61.941C62.784 60.213 64 57.717 64 54.901L64 32.501C64 14.837 49.664 0.500976 32 0.500975L9.6 0.500974C7.872 0.500974 6.272 0.948974 4.864 1.78097C14.848 4.53297 24.576 8.24498 34.112 12.149Z" fill="url(#paint0_linear_100_3168)"/>
<path d="M59.1357 63.2201C47.2317 59.9561 35.6477 55.3481 24.3197 50.4841C21.3117 49.1401 15.1037 46.3881 12.0957 45.0441L17.4077 39.2841C22.5917 33.7161 27.9677 28.2121 33.4717 22.9641C32.0637 22.1321 30.7197 21.4281 29.8237 20.8521C20.6077 15.3481 11.5197 9.58809 3.13574 2.99609C1.21574 4.72409 -0.000255772 7.28409 -0.000255895 10.1001L-0.000256874 32.5001C-0.000257646 50.1641 14.3357 64.5001 31.9997 64.5001L54.3997 64.5001C56.1277 64.5001 57.7277 64.0521 59.1357 63.2201Z" fill="url(#paint1_linear_100_3168)"/>
<defs>
<linearGradient id="paint0_linear_100_3168" x1="11.6076" y1="-4.99125" x2="69.7304" y2="53.1316" gradientUnits="userSpaceOnUse">
<stop offset="2.65193e-07" stop-color="#FF7389"/>
<stop offset="1" stop-color="#FF6800"/>
</linearGradient>
<linearGradient id="paint1_linear_100_3168" x1="-5.74611" y1="11.8849" x2="52.3748" y2="70.0058" gradientUnits="userSpaceOnUse">
<stop offset="2.65193e-07" stop-color="#FF7389"/>
<stop offset="1" stop-color="#FF6800"/>
</linearGradient>
</defs>
</svg>
